<svg width="60" height="60" viewBox="0 0 60 60" fill="none" xmlns="http://www.w3.org/2000/svg">
<path d="M52.5 40V20C52.4991 19.1232 52.2676 18.2621 51.8288 17.5029C51.3901 16.7438 50.7593 16.1134 50 15.675L32.5 5.67503C31.7399 5.23619 30.8777 5.00516 30 5.00516C29.1223 5.00516 28.2601 5.23619 27.5 5.67503L10 15.675C9.24066 16.1134 8.60995 16.7438 8.17115 17.5029C7.73236 18.2621 7.5009 19.1232 7.5 20V40C7.5009 40.8768 7.73236 41.738 8.17115 42.4971C8.60995 43.2562 9.24066 43.8866 10 44.325L27.5 54.325C28.2601 54.7639 29.1223 54.9949 30 54.9949C30.8777 54.9949 31.7399 54.7639 32.5 54.325L50 44.325C50.7593 43.8866 51.3901 43.2562 51.8288 42.4971C52.2676 41.738 52.4991 40.8768 52.5 40Z" stroke="#49E0F4" stroke-width="3" stroke-linecap="round" stroke-linejoin="round"/>
<path d="M8.17505 17.4L30 30.025L51.825 17.4" stroke="#49E0F4" stroke-width="3" stroke-linecap="round" stroke-linejoin="round"/>
<path d="M30 55.2V30" stroke="#49E0F4" stroke-width="3" stroke-linecap="round" stroke-linejoin="round"/>
</svg>
