<svg width="32" height="30" viewBox="0 0 32 30" fill="none" xmlns="http://www.w3.org/2000/svg">
<path d="M31.7568 8.56548C32.0101 7.91714 31.7368 7.21951 31.1438 7.00071L29.1152 6.25218C28.1343 5.89025 27.0211 6.19342 26.2497 6.97967L7.92502 0.21823C6.75241 -0.214436 5.42028 0.688387 5.24422 2.04009L4.17191 10.1388C3.95292 11.8093 4.80656 13.3458 6.2556 13.8804L19.1186 18.6266L18.3351 19.9271C18.0218 20.4417 17.4242 20.6786 16.9115 20.4894L4.05745 15.7465C3.46446 15.5277 2.78362 15.8733 2.53035 16.5216C2.27707 17.17 2.55037 17.8676 3.14336 18.0864L15.9974 22.8293C17.5401 23.3985 19.3327 22.6879 20.2637 21.1406L27.7251 8.77895C27.8286 8.60523 28.0272 8.5279 28.2011 8.59206L30.2297 9.34059C30.8227 9.55939 31.5035 9.21382 31.7568 8.56548ZM17.6707 27.9086C17.7908 27.6013 17.8543 27.2766 17.8576 26.9531C17.861 26.6295 17.8041 26.3134 17.6903 26.0228C17.5764 25.7322 17.4078 25.4728 17.1941 25.2594C16.9804 25.046 16.7257 24.8828 16.4447 24.7791C16.1637 24.6754 15.8617 24.6332 15.5561 24.655C15.2506 24.6768 14.9473 24.7621 14.6637 24.906C14.3801 25.05 14.1217 25.2498 13.9032 25.494C13.6848 25.7382 13.5105 26.022 13.3905 26.3293C13.2705 26.6366 13.207 26.9613 13.2036 27.2848C13.2003 27.6084 13.2571 27.9245 13.371 28.2151C13.4848 28.5057 13.6534 28.7651 13.8671 28.9785C14.0808 29.1919 14.3355 29.3551 14.6165 29.4588C14.8976 29.5625 15.1995 29.6047 15.5051 29.5829C15.8107 29.5611 16.1139 29.4758 16.3976 29.3319C16.6812 29.1879 16.9396 28.9881 17.158 28.7439C17.3765 28.4997 17.5507 28.2159 17.6707 27.9086V27.9086ZM3.60403 20.0411C3.03643 19.8317 2.39578 19.8774 1.82301 20.1681C1.25023 20.4588 0.792258 20.9708 0.549827 21.5914C0.307396 22.2119 0.30037 22.8903 0.530295 23.4772C0.76022 24.0641 1.20826 24.5115 1.77585 24.7209C2.34345 24.9303 2.9841 24.8847 3.55687 24.5939C4.12965 24.3032 4.58762 23.7912 4.83005 23.1707C5.07248 22.5501 5.07951 21.8717 4.84959 21.2848C4.61966 20.6979 4.17162 20.2506 3.60403 20.0411Z" fill="white"/>
</svg>
