<svg width="60" height="60" viewBox="0 0 60 60" fill="none" xmlns="http://www.w3.org/2000/svg">
<path d="M27.5 10H10C8.67392 10 7.40215 10.5268 6.46447 11.4645C5.52678 12.4021 5 13.6739 5 15V50C5 51.3261 5.52678 52.5979 6.46447 53.5355C7.40215 54.4732 8.67392 55 10 55H45C46.3261 55 47.5979 54.4732 48.5355 53.5355C49.4732 52.5979 50 51.3261 50 50V32.5" stroke="#CF32E9" stroke-width="3" stroke-linecap="round" stroke-linejoin="round"/>
<path d="M46.25 6.24999C47.2446 5.25542 48.5935 4.69669 50 4.69669C51.4065 4.69669 52.7554 5.25542 53.75 6.24999C54.7446 7.24455 55.3033 8.59346 55.3033 9.99999C55.3033 11.4065 54.7446 12.7554 53.75 13.75L30 37.5L20 40L22.5 30L46.25 6.24999Z" stroke="#CF32E9" stroke-width="3" stroke-linecap="round" stroke-linejoin="round"/>
</svg>
