<svg width="45" height="45" viewBox="0 0 45 45" fill="none" xmlns="http://www.w3.org/2000/svg">
<path d="M39.2756 15.5719C39.2567 14.1518 38.9909 12.7458 38.49 11.4169C38.0557 10.2959 37.3923 9.27785 36.5422 8.42779C35.6921 7.57772 34.6741 6.91433 33.5531 6.47998C32.2413 5.98753 30.8553 5.72125 29.4544 5.69248C27.6506 5.61186 27.0788 5.58936 22.5 5.58936C17.9213 5.58936 17.3344 5.58936 15.5438 5.69248C14.1434 5.72146 12.7582 5.98773 11.4469 6.47998C10.3257 6.91402 9.30755 7.57731 8.45745 8.42742C7.60734 9.27752 6.94405 10.2957 6.51001 11.4169C6.01657 12.7277 5.75087 14.1133 5.72438 15.5137C5.64376 17.3194 5.61938 17.8912 5.61938 22.47C5.61938 27.0487 5.61938 27.6337 5.72438 29.4262C5.75251 30.8287 6.01688 32.2125 6.51001 33.5269C6.94478 34.6477 7.60856 35.6654 8.45895 36.5152C9.30934 37.3649 10.3276 38.0279 11.4488 38.4619C12.7564 38.9741 14.142 39.2594 15.5456 39.3056C17.3513 39.3862 17.9231 39.4106 22.5019 39.4106C27.0806 39.4106 27.6675 39.4106 29.4581 39.3056C30.859 39.278 32.2451 39.0124 33.5569 38.52C34.6776 38.0851 35.6953 37.4216 36.5453 36.5716C37.3953 35.7216 38.0589 34.7038 38.4938 33.5831C38.9869 32.2706 39.2513 30.8869 39.2794 29.4825C39.36 27.6787 39.3844 27.1069 39.3844 22.5262C39.3806 17.9475 39.3806 17.3662 39.2756 15.5719V15.5719ZM22.4888 31.1287C17.7 31.1287 13.8206 27.2494 13.8206 22.4606C13.8206 17.6719 17.7 13.7925 22.4888 13.7925C24.7877 13.7925 26.9925 14.7057 28.6181 16.3313C30.2436 17.9569 31.1569 20.1617 31.1569 22.4606C31.1569 24.7595 30.2436 26.9643 28.6181 28.5899C26.9925 30.2155 24.7877 31.1287 22.4888 31.1287V31.1287ZM31.5019 15.4931C31.2364 15.4934 30.9734 15.4412 30.7281 15.3398C30.4828 15.2383 30.2598 15.0894 30.0721 14.9016C29.8844 14.7139 29.7355 14.491 29.634 14.2456C29.5325 14.0003 29.4804 13.7374 29.4806 13.4719C29.4806 13.2065 29.5329 12.9438 29.6344 12.6987C29.736 12.4536 29.8848 12.2309 30.0724 12.0433C30.26 11.8557 30.4827 11.7069 30.7278 11.6053C30.9729 11.5038 31.2356 11.4515 31.5009 11.4515C31.7663 11.4515 32.029 11.5038 32.2741 11.6053C32.5192 11.7069 32.7419 11.8557 32.9295 12.0433C33.1171 12.2309 33.2659 12.4536 33.3675 12.6987C33.469 12.9438 33.5213 13.2065 33.5213 13.4719C33.5213 14.5894 32.6175 15.4931 31.5019 15.4931Z" fill="white"/>
<path d="M22.4888 28.0913C25.5985 28.0913 28.1194 25.5704 28.1194 22.4606C28.1194 19.3509 25.5985 16.83 22.4888 16.83C19.3791 16.83 16.8582 19.3509 16.8582 22.4606C16.8582 25.5704 19.3791 28.0913 22.4888 28.0913Z" fill="white"/>
</svg>
