<svg width="115" height="115" viewBox="0 0 115 115" fill="none" xmlns="http://www.w3.org/2000/svg">
<path d="M95.8333 86.25C101.104 86.25 105.417 81.9375 105.417 76.6667V28.75C105.417 23.4792 101.104 19.1667 95.8333 19.1667H19.1667C13.8958 19.1667 9.58333 23.4792 9.58333 28.75V76.6667C9.58333 81.9375 13.8958 86.25 19.1667 86.25H0V95.8333H115V86.25H95.8333ZM19.1667 28.75H95.8333V76.6667H19.1667V28.75Z" fill="white"/>
<path d="M53.4938 61.5354C53.0216 61.8424 52.5432 61.8598 52.0587 61.5878C51.5752 61.3168 51.3334 60.8979 51.3334 60.3313V45.6688C51.3334 45.1021 51.5752 44.6828 52.0587 44.4108C52.5432 44.1397 53.0216 44.1577 53.4938 44.4646L65.0396 51.7958C65.4646 52.0792 65.6771 52.4806 65.6771 53C65.6771 53.5195 65.4646 53.9208 65.0396 54.2042L53.4938 61.5354Z" fill="white"/>
</svg>
