<svg width="98" height="98" viewBox="0 0 98 98" fill="none" xmlns="http://www.w3.org/2000/svg">
<path d="M10.0041 43.1812L25.0104 49.6125C26.984 44.5764 29.0257 40.2889 31.1354 36.75C33.2451 33.2111 36.1375 29.2639 39.8125 24.9083L34.5041 23.7854C33.143 23.5132 31.816 23.5812 30.5229 23.9896C29.2298 24.3979 28.1069 25.0785 27.1541 26.0312L10.0041 43.1812ZM30.9312 52.4708L46.8562 68.4979C51.7562 66.9326 56.418 64.7725 60.8416 62.0176C65.2653 59.26 69.3486 56.0097 73.0916 52.2667C79.0805 46.2778 83.5382 39.4382 86.4646 31.7479C89.391 24.0576 90.2757 16.8778 89.1187 10.2083C82.4493 9.05137 75.2694 9.95243 67.5791 12.9115C59.8889 15.8733 53.0493 20.3486 47.0604 26.3375C43.2493 30.1486 39.9989 34.2319 37.3094 38.5875C34.6226 42.943 32.4965 47.5708 30.9312 52.4708ZM59.1062 40.2208C57.541 38.6555 56.7583 36.7323 56.7583 34.4511C56.7583 32.1726 57.541 30.2507 59.1062 28.6854C60.6715 27.1201 62.5948 26.3375 64.876 26.3375C67.1545 26.3375 69.0764 27.1201 70.6416 28.6854C72.2069 30.2507 72.9896 32.1726 72.9896 34.4511C72.9896 36.7323 72.2069 38.6555 70.6416 40.2208C69.0764 41.7861 67.1545 42.5687 64.876 42.5687C62.5948 42.5687 60.6715 41.7861 59.1062 40.2208ZM56.2479 89.3229L73.2958 72.275C74.2486 71.3222 74.9292 70.183 75.3375 68.8572C75.7458 67.5288 75.8139 66.184 75.5416 64.8229L74.5208 59.5146C70.1653 63.1896 66.2017 66.0819 62.6301 68.1917C59.0559 70.3014 54.7507 72.343 49.7146 74.3167L56.2479 89.3229ZM16.5375 65.5375C18.9194 63.1555 21.8118 61.9469 25.2146 61.9115C28.6173 61.8788 31.5097 63.0535 33.8916 65.4354C36.2736 67.8173 37.4646 70.7097 37.4646 74.1125C37.4646 77.5153 36.2736 80.4076 33.8916 82.7896C32.1903 84.491 29.3496 85.9541 25.3697 87.1791C21.3871 88.4042 15.8909 89.493 8.88123 90.4458C9.834 83.4361 10.9229 77.9576 12.1479 74.0104C13.3729 70.0632 14.8361 67.2389 16.5375 65.5375Z" fill="white"/>
</svg>
