<svg width="117" height="25" viewBox="0 0 117 25" fill="none" xmlns="http://www.w3.org/2000/svg">
<path d="M22.1704 8.62061L15.9716 7.71974L13.2006 2.10206C13.125 1.94825 13.0005 1.82374 12.8466 1.74806C12.4609 1.55763 11.9921 1.71632 11.7993 2.10206L9.02828 7.71974L2.82955 8.62061C2.65865 8.64503 2.5024 8.72559 2.38277 8.84766C2.23815 8.99631 2.15845 9.1963 2.1612 9.40368C2.16395 9.61105 2.24891 9.80886 2.39742 9.95362L6.88229 14.3262L5.82272 20.5005C5.79787 20.6441 5.81376 20.7918 5.86859 20.9269C5.92343 21.0619 6.015 21.1789 6.13294 21.2646C6.25088 21.3503 6.39046 21.4011 6.53585 21.4115C6.68124 21.4219 6.82663 21.3913 6.95553 21.3232L12.5 18.4082L18.0444 21.3232C18.1958 21.4038 18.3715 21.4307 18.54 21.4014C18.9648 21.3281 19.2505 20.9253 19.1772 20.5005L18.1176 14.3262L22.6025 9.95362C22.7246 9.83399 22.8051 9.67774 22.8296 9.50684C22.8955 9.0796 22.5976 8.68409 22.1704 8.62061Z" fill="#168695"/>
<path d="M45.1704 8.62061L38.9716 7.71974L36.2006 2.10206C36.125 1.94825 36.0005 1.82374 35.8466 1.74806C35.4609 1.55763 34.9921 1.71632 34.7993 2.10206L32.0283 7.71974L25.8296 8.62061C25.6587 8.64503 25.5024 8.72559 25.3828 8.84766C25.2381 8.99631 25.1585 9.1963 25.1612 9.40368C25.1639 9.61105 25.2489 9.80886 25.3974 9.95362L29.8823 14.3262L28.8227 20.5005C28.7979 20.6441 28.8138 20.7918 28.8686 20.9269C28.9234 21.0619 29.015 21.1789 29.1329 21.2646C29.2509 21.3503 29.3905 21.4011 29.5358 21.4115C29.6812 21.4219 29.8266 21.3913 29.9555 21.3232L35.5 18.4082L41.0444 21.3232C41.1958 21.4038 41.3715 21.4307 41.54 21.4014C41.9648 21.3281 42.2505 20.9253 42.1772 20.5005L41.1176 14.3262L45.6025 9.95362C45.7246 9.83399 45.8051 9.67774 45.8296 9.50684C45.8955 9.0796 45.5976 8.68409 45.1704 8.62061Z" fill="#168695"/>
<path d="M68.1704 8.62061L61.9716 7.71974L59.2006 2.10206C59.125 1.94825 59.0005 1.82374 58.8466 1.74806C58.4609 1.55763 57.9921 1.71632 57.7993 2.10206L55.0283 7.71974L48.8296 8.62061C48.6587 8.64503 48.5024 8.72559 48.3828 8.84766C48.2381 8.99631 48.1585 9.1963 48.1612 9.40368C48.1639 9.61105 48.2489 9.80886 48.3974 9.95362L52.8823 14.3262L51.8227 20.5005C51.7979 20.6441 51.8138 20.7918 51.8686 20.9269C51.9234 21.0619 52.015 21.1789 52.1329 21.2646C52.2509 21.3503 52.3905 21.4011 52.5358 21.4115C52.6812 21.4219 52.8266 21.3913 52.9555 21.3232L58.5 18.4082L64.0444 21.3232C64.1958 21.4038 64.3715 21.4307 64.54 21.4014C64.9648 21.3281 65.2505 20.9253 65.1772 20.5005L64.1176 14.3262L68.6025 9.95362C68.7246 9.83399 68.8051 9.67774 68.8296 9.50684C68.8955 9.0796 68.5976 8.68409 68.1704 8.62061Z" fill="#168695"/>
<path d="M91.1704 8.62061L84.9716 7.71974L82.2006 2.10206C82.125 1.94825 82.0005 1.82374 81.8466 1.74806C81.4609 1.55763 80.9921 1.71632 80.7993 2.10206L78.0283 7.71974L71.8296 8.62061C71.6587 8.64503 71.5024 8.72559 71.3828 8.84766C71.2381 8.99631 71.1585 9.1963 71.1612 9.40368C71.1639 9.61105 71.2489 9.80886 71.3974 9.95362L75.8823 14.3262L74.8227 20.5005C74.7979 20.6441 74.8138 20.7918 74.8686 20.9269C74.9234 21.0619 75.015 21.1789 75.1329 21.2646C75.2509 21.3503 75.3905 21.4011 75.5358 21.4115C75.6812 21.4219 75.8266 21.3913 75.9555 21.3232L81.5 18.4082L87.0444 21.3232C87.1958 21.4038 87.3715 21.4307 87.54 21.4014C87.9648 21.3281 88.2505 20.9253 88.1772 20.5005L87.1176 14.3262L91.6025 9.95362C91.7246 9.83399 91.8051 9.67774 91.8296 9.50684C91.8955 9.0796 91.5976 8.68409 91.1704 8.62061Z" fill="#168695"/>
<path d="M114.17 8.62061L107.972 7.71974L105.201 2.10206C105.125 1.94825 105 1.82374 104.847 1.74806C104.461 1.55763 103.992 1.71632 103.799 2.10206L101.028 7.71974L94.8296 8.62061C94.6587 8.64503 94.5024 8.72559 94.3828 8.84766C94.2381 8.99631 94.1585 9.1963 94.1612 9.40368C94.1639 9.61105 94.2489 9.80886 94.3974 9.95362L98.8823 14.3262L97.8227 20.5005C97.7979 20.6441 97.8138 20.7918 97.8686 20.9269C97.9234 21.0619 98.015 21.1789 98.1329 21.2646C98.2509 21.3503 98.3905 21.4011 98.5358 21.4115C98.6812 21.4219 98.8266 21.3913 98.9555 21.3232L104.5 18.4082L110.044 21.3232C110.196 21.4038 110.372 21.4307 110.54 21.4014C110.965 21.3281 111.25 20.9253 111.177 20.5005L110.118 14.3262L114.603 9.95362C114.725 9.83399 114.805 9.67774 114.83 9.50684C114.895 9.0796 114.598 8.68409 114.17 8.62061Z" fill="#168695"/>
</svg>
