<svg width="107" height="107" viewBox="0 0 107 107" fill="none" xmlns="http://www.w3.org/2000/svg">
<g clip-path="url(#clip0_35_273)">
<path d="M47.3921 62.8625C49.0895 59.1326 51.5051 55.7736 54.5008 52.9774C57.4966 50.1812 61.0139 48.0026 64.8518 46.566C68.6897 45.1294 72.773 44.4629 76.8685 44.6046C80.964 44.7464 84.9915 45.6936 88.7209 47.3921C92.4508 49.0895 95.8098 51.505 98.6059 54.5008C101.402 57.4966 103.581 61.0139 105.017 64.8517C106.454 68.6896 107.12 72.773 106.979 76.8685C106.837 80.964 105.89 84.9915 104.191 88.7208C101.719 94.1781 97.7247 98.8058 92.687 102.048C87.6493 105.291 81.7827 107.01 75.7917 107C63.7542 107 52.7421 100.045 47.5705 89.1667H4.45837V80.25C4.72587 75.1675 8.20337 71.0213 14.8909 67.6775C21.5784 64.3338 29.96 62.595 40.125 62.4167C42.6663 62.4167 45.0738 62.6396 47.3921 62.8625ZM40.125 17.8333C45.1184 17.9671 49.3092 19.7058 52.653 23.0496C55.9967 26.3933 57.6463 30.5842 57.6463 35.6667C57.6463 40.7492 55.9967 44.94 52.653 48.2838C49.3092 51.6275 45.1184 53.2771 40.125 53.2771C35.1317 53.2771 30.9409 51.6275 27.5971 48.2838C24.2534 44.94 22.6038 40.7492 22.6038 35.6667C22.6038 30.5842 24.2534 26.3933 27.5971 23.0496C30.9409 19.7058 35.1317 17.9671 40.125 17.8333ZM75.7917 98.0833C81.7038 98.0833 87.3738 95.7348 91.5543 91.5543C95.7348 87.3738 98.0834 81.7038 98.0834 75.7917C98.0834 69.8796 95.7348 64.2096 91.5543 60.0291C87.3738 55.8486 81.7038 53.5 75.7917 53.5C69.8796 53.5 64.2096 55.8486 60.0291 60.0291C55.8486 64.2096 53.5 69.8796 53.5 75.7917C53.5 81.7038 55.8486 87.3738 60.0291 91.5543C64.2096 95.7348 69.8796 98.0833 75.7917 98.0833ZM71.3334 62.4167H78.0209V74.9892L88.8992 81.2754L85.5555 87.0713L71.3334 78.8679V62.4167Z" fill="white"/>
</g>
<defs>
<clipPath id="clip0_35_273">
<rect width="107" height="107" fill="white"/>
</clipPath>
</defs>
</svg>
